<?xml version="1.0" encoding="UTF-8" standalone="no"?>
<svg
   xmlns:dc="http://purl.org/dc/elements/1.1/"
   xmlns:cc="http://creativecommons.org/ns#"
   xmlns:rdf="http://www.w3.org/1999/02/22-rdf-syntax-ns#"
   xmlns:svg="http://www.w3.org/2000/svg"
   xmlns="http://www.w3.org/2000/svg"
   xmlns:sodipodi="http://sodipodi.sourceforge.net/DTD/sodipodi-0.dtd"
   xmlns:inkscape="http://www.inkscape.org/namespaces/inkscape"
   width="625"
   height="552"
   viewBox="0 0 48.189 42.560525"
   version="1.1"
   id="svg8"
   sodipodi:docname="google.svg"
   inkscape:version="0.92.3 (2405546, 2018-03-11)">
  <metadata
     id="metadata14">
    <rdf:RDF>
      <cc:Work
         rdf:about="">
        <dc:format>image/svg+xml</dc:format>
        <dc:type
           rdf:resource="http://purl.org/dc/dcmitype/StillImage" />
        <dc:title></dc:title>
      </cc:Work>
    </rdf:RDF>
  </metadata>
  <defs
     id="defs12" />
  <sodipodi:namedview
     pagecolor="#ffffff"
     bordercolor="#666666"
     borderopacity="1"
     objecttolerance="10"
     gridtolerance="10"
     guidetolerance="10"
     inkscape:pageopacity="0"
     inkscape:pageshadow="2"
     inkscape:window-width="1366"
     inkscape:window-height="705"
     id="namedview10"
     showgrid="false"
     inkscape:zoom="0.0944"
     inkscape:cx="1250"
     inkscape:cy="1250"
     inkscape:window-x="1358"
     inkscape:window-y="-8"
     inkscape:window-maximized="1"
     inkscape:current-layer="svg8" />
  <g
     id="g6"
     style="clip-rule:evenodd;fill-rule:evenodd"
     transform="translate(0,-150.19548)">
    <path
       d="M 0,0 H 192.756 V 192.756 H 0 Z"
       id="path2"
       inkscape:connector-curvature="0"
       style="fill:#ffffff" />
    <path
       d="m 102.379,121.166 h 25.672 c 3.836,0 6.984,-1.574 9.541,-4.723 2.459,-3.049 3.738,-6.688 3.738,-10.818 0,-8.361 -10.721,-14.263 -14.854,-14.263 h -14.065 c -1.082,0 -1.969,-0.492 -2.656,-1.278 -0.689,-0.886 -1.082,-1.869 -1.082,-3.05 0,-1.377 0.393,-2.557 1.082,-3.541 0.787,-0.983 1.77,-1.573 2.951,-1.573 h 26.361 V 71.394 h -26.854 c -4.82,0 -8.559,1.476 -11.215,4.328 -2.359,2.656 -3.541,6.197 -3.541,10.427 0,4.131 1.182,7.771 3.541,10.72 2.656,3.246 5.805,4.92 9.641,4.92 h 16.231 c 0.982,0 1.77,0.295 2.359,1.08 0.689,0.787 0.984,1.771 0.984,2.854 0,1.279 -0.492,2.459 -1.279,3.443 -0.885,0.885 -1.869,1.377 -3.146,1.377 H 99.82 l -0.393,-0.689 -9.738,-31.279 -0.492,-0.984 c -2.361,-4.82 -6.295,-7.18 -11.705,-7.18 -2.951,0 -5.607,0.688 -7.968,2.164 -2.459,1.475 -4.033,3.639 -4.918,6.394 l -13.083,42.098 11.902,0.1 12,-37.476 c 0.295,-1.181 0.984,-1.771 1.869,-1.771 0.492,0 0.885,0.196 1.18,0.492 0.295,0.393 0.492,0.787 0.59,1.279 l 12.098,37.476 h 11.217 z M 13.851,86.739 v 34.328 H 2.834 V 83.001 c 0,-4.918 1.181,-8.361 3.738,-10.426 1.967,-1.476 4.918,-2.263 9.049,-2.263 3.344,0 6.197,0.984 8.754,2.853 2.557,1.869 4.229,4.426 5.115,7.574 l 7.18,25.279 1.181,3.443 c 0.098,0.688 0.492,1.18 0.885,1.572 0.492,0.395 0.983,0.592 1.574,0.395 0.984,-0.098 1.476,-0.689 1.476,-1.574 V 71.493 h 11.312 v 37.869 c 0,4.23 -0.983,7.379 -3.049,9.641 -1.967,2.262 -4.918,3.443 -8.853,3.443 -3.443,0 -6.296,-0.689 -8.558,-1.869 -2.754,-1.377 -4.525,-3.541 -5.312,-6.395 l -8.262,-28.82 -0.59,-1.869 c -0.197,-0.688 -0.59,-1.18 -1.082,-1.672 -0.492,-0.394 -1.082,-0.492 -1.672,-0.394 -0.59,0.099 -0.983,0.394 -1.377,0.984 a 3.398,3.398 0 0 0 -0.492,1.77 z m 176.071,34.427 -12.787,-42.591 -0.492,-0.984 c -2.361,-4.82 -6.295,-7.18 -11.705,-7.18 -2.951,0 -5.607,0.688 -7.967,2.164 -2.461,1.475 -4.033,3.639 -4.92,6.394 l -13.082,42.098 11.902,0.1 12,-37.476 c 0.295,-1.181 0.984,-1.771 1.869,-1.771 0.492,0 0.885,0.196 1.18,0.492 0.297,0.393 0.492,0.787 0.592,1.279 l 12.098,37.476 h 11.312 z"
       id="path4"
       inkscape:connector-curvature="0" />
  </g>
</svg>
